<mxfile host="app.diagrams.net" modified="2023-11-02T21:06:41.681Z" agent="Mozilla/5.0 (Windows NT 10.0; Win64; x64) AppleWebKit/537.36 (KHTML, like Gecko) Chrome/119.0.0.0 Safari/537.36" etag="ZkFvpAm1eagDA-1QPunp" version="22.0.8" type="device">
  <diagram id="R2lEEEUBdFMjLlhIrx00" name="Page-1">
    <mxGraphModel dx="1434" dy="758" grid="1" gridSize="10" guides="1" tooltips="1" connect="1" arrows="1" fold="1" page="1" pageScale="1" pageWidth="850" pageHeight="1100" math="0" shadow="0" extFonts="Permanent Marker^https://fonts.googleapis.com/css?family=Permanent+Marker">
      <root>
        <mxCell id="0" />
        <mxCell id="1" parent="0" />
        <mxCell id="ibfBiuJEtOCAfwr-24rk-17" value="POST: ID" style="edgeStyle=orthogonalEdgeStyle;rounded=0;orthogonalLoop=1;jettySize=auto;html=1;exitX=0;exitY=0.25;exitDx=0;exitDy=0;entryX=1;entryY=0.25;entryDx=0;entryDy=0;" edge="1" parent="1" source="ibfBiuJEtOCAfwr-24rk-1" target="ibfBiuJEtOCAfwr-24rk-10">
          <mxGeometry relative="1" as="geometry" />
        </mxCell>
        <mxCell id="ibfBiuJEtOCAfwr-24rk-1" value="Dashboard&lt;br&gt;&lt;font style=&quot;font-size: 6px;&quot;&gt;code/pages/admin/dashboard.php&lt;/font&gt;" style="rounded=0;whiteSpace=wrap;html=1;" vertex="1" parent="1">
          <mxGeometry x="270" y="180" width="140" height="70" as="geometry" />
        </mxCell>
        <mxCell id="ibfBiuJEtOCAfwr-24rk-3" value="&lt;font style=&quot;&quot;&gt;Form editor&lt;br&gt;&lt;/font&gt;&lt;font style=&quot;font-size: 6px;&quot;&gt;code/pages/admin/editor.php&lt;/font&gt;" style="rounded=0;whiteSpace=wrap;html=1;" vertex="1" parent="1">
          <mxGeometry x="530" y="180" width="140" height="70" as="geometry" />
        </mxCell>
        <mxCell id="ibfBiuJEtOCAfwr-24rk-6" value="GET: ID" style="endArrow=classic;html=1;rounded=0;exitX=1;exitY=0.75;exitDx=0;exitDy=0;entryX=0;entryY=0.75;entryDx=0;entryDy=0;" edge="1" parent="1" source="ibfBiuJEtOCAfwr-24rk-1" target="ibfBiuJEtOCAfwr-24rk-3">
          <mxGeometry width="50" height="50" relative="1" as="geometry">
            <mxPoint x="550" y="280" as="sourcePoint" />
            <mxPoint x="600" y="230" as="targetPoint" />
          </mxGeometry>
        </mxCell>
        <mxCell id="ibfBiuJEtOCAfwr-24rk-7" value="&lt;font style=&quot;&quot;&gt;Create form&lt;br&gt;&lt;/font&gt;&lt;font style=&quot;font-size: 6px;&quot;&gt;code/pages/admin/action/createForm.php&lt;/font&gt;" style="rounded=0;whiteSpace=wrap;html=1;fillColor=#ffe6cc;strokeColor=#d79b00;" vertex="1" parent="1">
          <mxGeometry x="270" y="320" width="140" height="70" as="geometry" />
        </mxCell>
        <mxCell id="ibfBiuJEtOCAfwr-24rk-9" value="GET: ID" style="endArrow=classic;html=1;rounded=0;exitX=1;exitY=0.5;exitDx=0;exitDy=0;entryX=0;entryY=1;entryDx=0;entryDy=0;" edge="1" parent="1" source="ibfBiuJEtOCAfwr-24rk-7" target="ibfBiuJEtOCAfwr-24rk-3">
          <mxGeometry width="50" height="50" relative="1" as="geometry">
            <mxPoint x="370" y="340" as="sourcePoint" />
            <mxPoint x="420" y="290" as="targetPoint" />
          </mxGeometry>
        </mxCell>
        <mxCell id="ibfBiuJEtOCAfwr-24rk-18" value="1 / 0" style="edgeStyle=orthogonalEdgeStyle;rounded=0;orthogonalLoop=1;jettySize=auto;html=1;exitX=1;exitY=0.75;exitDx=0;exitDy=0;entryX=0;entryY=0.75;entryDx=0;entryDy=0;" edge="1" parent="1" source="ibfBiuJEtOCAfwr-24rk-10" target="ibfBiuJEtOCAfwr-24rk-1">
          <mxGeometry relative="1" as="geometry" />
        </mxCell>
        <mxCell id="ibfBiuJEtOCAfwr-24rk-10" value="&lt;font style=&quot;&quot;&gt;Delete form&lt;br&gt;&lt;/font&gt;&lt;font style=&quot;font-size: 6px;&quot;&gt;code/pages/admin/action/deleteForm.php&lt;/font&gt;" style="rounded=0;whiteSpace=wrap;html=1;fillColor=#ffe6cc;strokeColor=#d79b00;" vertex="1" parent="1">
          <mxGeometry x="40" y="180" width="140" height="70" as="geometry" />
        </mxCell>
        <mxCell id="ibfBiuJEtOCAfwr-24rk-13" value="" style="endArrow=classic;html=1;rounded=0;exitX=0.5;exitY=1;exitDx=0;exitDy=0;entryX=0.5;entryY=0;entryDx=0;entryDy=0;" edge="1" parent="1" source="ibfBiuJEtOCAfwr-24rk-1" target="ibfBiuJEtOCAfwr-24rk-7">
          <mxGeometry width="50" height="50" relative="1" as="geometry">
            <mxPoint x="280" y="310" as="sourcePoint" />
            <mxPoint x="330" y="260" as="targetPoint" />
          </mxGeometry>
        </mxCell>
        <mxCell id="ibfBiuJEtOCAfwr-24rk-22" value="&lt;font style=&quot;&quot;&gt;Create question&lt;br&gt;&lt;/font&gt;&lt;font style=&quot;font-size: 6px;&quot;&gt;code/pages/admin/action/createQuestion.php&lt;/font&gt;" style="rounded=0;whiteSpace=wrap;html=1;fillColor=#ffe6cc;strokeColor=#d79b00;" vertex="1" parent="1">
          <mxGeometry x="830" y="180" width="140" height="70" as="geometry" />
        </mxCell>
        <mxCell id="ibfBiuJEtOCAfwr-24rk-23" value="POST: type [0-2]" style="endArrow=classic;html=1;rounded=0;exitX=1;exitY=0.75;exitDx=0;exitDy=0;entryX=0;entryY=0.75;entryDx=0;entryDy=0;" edge="1" parent="1" source="ibfBiuJEtOCAfwr-24rk-3" target="ibfBiuJEtOCAfwr-24rk-22">
          <mxGeometry width="50" height="50" relative="1" as="geometry">
            <mxPoint x="660" y="210" as="sourcePoint" />
            <mxPoint x="710" y="160" as="targetPoint" />
            <mxPoint as="offset" />
          </mxGeometry>
        </mxCell>
        <mxCell id="ibfBiuJEtOCAfwr-24rk-24" value="" style="endArrow=classic;html=1;rounded=0;exitX=0;exitY=0.25;exitDx=0;exitDy=0;entryX=1;entryY=0.25;entryDx=0;entryDy=0;" edge="1" parent="1" source="ibfBiuJEtOCAfwr-24rk-22" target="ibfBiuJEtOCAfwr-24rk-3">
          <mxGeometry width="50" height="50" relative="1" as="geometry">
            <mxPoint x="660" y="210" as="sourcePoint" />
            <mxPoint x="710" y="160" as="targetPoint" />
          </mxGeometry>
        </mxCell>
        <mxCell id="ibfBiuJEtOCAfwr-24rk-26" value="1 / 0" style="edgeLabel;html=1;align=center;verticalAlign=middle;resizable=0;points=[];" vertex="1" connectable="0" parent="ibfBiuJEtOCAfwr-24rk-24">
          <mxGeometry x="-0.0473" y="1" relative="1" as="geometry">
            <mxPoint as="offset" />
          </mxGeometry>
        </mxCell>
        <mxCell id="ibfBiuJEtOCAfwr-24rk-27" value="&lt;font style=&quot;&quot;&gt;Delete question&lt;br&gt;&lt;/font&gt;&lt;font style=&quot;font-size: 6px;&quot;&gt;code/pages/admin/action/deleteQuestion.php&lt;/font&gt;" style="rounded=0;whiteSpace=wrap;html=1;fillColor=#ffe6cc;strokeColor=#d79b00;" vertex="1" parent="1">
          <mxGeometry x="530" y="320" width="140" height="70" as="geometry" />
        </mxCell>
        <mxCell id="ibfBiuJEtOCAfwr-24rk-28" value="1 / 0" style="endArrow=classic;html=1;rounded=0;exitX=0.25;exitY=0;exitDx=0;exitDy=0;entryX=0.25;entryY=1;entryDx=0;entryDy=0;" edge="1" parent="1" source="ibfBiuJEtOCAfwr-24rk-27" target="ibfBiuJEtOCAfwr-24rk-3">
          <mxGeometry width="50" height="50" relative="1" as="geometry">
            <mxPoint x="630" y="280" as="sourcePoint" />
            <mxPoint x="680" y="230" as="targetPoint" />
          </mxGeometry>
        </mxCell>
        <mxCell id="ibfBiuJEtOCAfwr-24rk-29" value="" style="endArrow=classic;html=1;rounded=0;exitX=0.75;exitY=1;exitDx=0;exitDy=0;entryX=0.75;entryY=0;entryDx=0;entryDy=0;" edge="1" parent="1" source="ibfBiuJEtOCAfwr-24rk-3" target="ibfBiuJEtOCAfwr-24rk-27">
          <mxGeometry width="50" height="50" relative="1" as="geometry">
            <mxPoint x="630" y="280" as="sourcePoint" />
            <mxPoint x="680" y="230" as="targetPoint" />
          </mxGeometry>
        </mxCell>
        <mxCell id="ibfBiuJEtOCAfwr-24rk-31" value="POST: ID" style="edgeLabel;html=1;align=center;verticalAlign=middle;resizable=0;points=[];" vertex="1" connectable="0" parent="ibfBiuJEtOCAfwr-24rk-29">
          <mxGeometry x="-0.0286" relative="1" as="geometry">
            <mxPoint as="offset" />
          </mxGeometry>
        </mxCell>
        <mxCell id="ibfBiuJEtOCAfwr-24rk-32" value="" style="endArrow=classic;html=1;rounded=0;exitX=0;exitY=0.25;exitDx=0;exitDy=0;entryX=1;entryY=0.25;entryDx=0;entryDy=0;" edge="1" parent="1" source="ibfBiuJEtOCAfwr-24rk-3" target="ibfBiuJEtOCAfwr-24rk-1">
          <mxGeometry width="50" height="50" relative="1" as="geometry">
            <mxPoint x="480" y="230" as="sourcePoint" />
            <mxPoint x="530" y="180" as="targetPoint" />
          </mxGeometry>
        </mxCell>
        <mxCell id="ibfBiuJEtOCAfwr-24rk-33" value="&lt;font style=&quot;&quot;&gt;Update form&lt;br&gt;&lt;/font&gt;&lt;font style=&quot;font-size: 6px;&quot;&gt;code/pages/admin/action/updateForm.php&lt;/font&gt;" style="rounded=0;whiteSpace=wrap;html=1;fillColor=#ffe6cc;strokeColor=#d79b00;" vertex="1" parent="1">
          <mxGeometry x="650" y="40" width="140" height="70" as="geometry" />
        </mxCell>
        <mxCell id="ibfBiuJEtOCAfwr-24rk-34" value="POST: data [form json]" style="endArrow=classic;html=1;rounded=0;exitX=1;exitY=0;exitDx=0;exitDy=0;entryX=0.5;entryY=1;entryDx=0;entryDy=0;" edge="1" parent="1" source="ibfBiuJEtOCAfwr-24rk-3" target="ibfBiuJEtOCAfwr-24rk-33">
          <mxGeometry x="0.1081" y="-15" width="50" height="50" relative="1" as="geometry">
            <mxPoint x="540" y="190" as="sourcePoint" />
            <mxPoint x="590" y="140" as="targetPoint" />
            <mxPoint as="offset" />
          </mxGeometry>
        </mxCell>
        <mxCell id="ibfBiuJEtOCAfwr-24rk-35" value="" style="endArrow=classic;html=1;rounded=0;exitX=0;exitY=1;exitDx=0;exitDy=0;entryX=0.5;entryY=0;entryDx=0;entryDy=0;" edge="1" parent="1" source="ibfBiuJEtOCAfwr-24rk-33" target="ibfBiuJEtOCAfwr-24rk-3">
          <mxGeometry width="50" height="50" relative="1" as="geometry">
            <mxPoint x="560" y="160" as="sourcePoint" />
            <mxPoint x="610" y="110" as="targetPoint" />
          </mxGeometry>
        </mxCell>
        <mxCell id="ibfBiuJEtOCAfwr-24rk-36" value="1 / 0" style="edgeLabel;html=1;align=center;verticalAlign=middle;resizable=0;points=[];" vertex="1" connectable="0" parent="ibfBiuJEtOCAfwr-24rk-35">
          <mxGeometry x="-0.1476" y="-1" relative="1" as="geometry">
            <mxPoint y="1" as="offset" />
          </mxGeometry>
        </mxCell>
        <mxCell id="ibfBiuJEtOCAfwr-24rk-37" value="&lt;font style=&quot;&quot;&gt;Read form&lt;br&gt;&lt;/font&gt;&lt;font style=&quot;font-size: 6px;&quot;&gt;code/pages/admin/action/readForm.php&lt;/font&gt;" style="rounded=0;whiteSpace=wrap;html=1;fillColor=#ffe6cc;strokeColor=#d79b00;" vertex="1" parent="1">
          <mxGeometry x="425" y="40" width="140" height="70" as="geometry" />
        </mxCell>
        <mxCell id="ibfBiuJEtOCAfwr-24rk-38" value="POST: ID" style="endArrow=classic;html=1;rounded=0;exitX=0.394;exitY=-0.003;exitDx=0;exitDy=0;entryX=0.75;entryY=1;entryDx=0;entryDy=0;exitPerimeter=0;" edge="1" parent="1" source="ibfBiuJEtOCAfwr-24rk-3" target="ibfBiuJEtOCAfwr-24rk-37">
          <mxGeometry width="50" height="50" relative="1" as="geometry">
            <mxPoint x="500" y="190" as="sourcePoint" />
            <mxPoint x="550" y="140" as="targetPoint" />
          </mxGeometry>
        </mxCell>
        <mxCell id="ibfBiuJEtOCAfwr-24rk-39" value="form json" style="endArrow=classic;html=1;rounded=0;entryX=0;entryY=0;entryDx=0;entryDy=0;exitX=0.25;exitY=1;exitDx=0;exitDy=0;" edge="1" parent="1" source="ibfBiuJEtOCAfwr-24rk-37" target="ibfBiuJEtOCAfwr-24rk-3">
          <mxGeometry width="50" height="50" relative="1" as="geometry">
            <mxPoint x="420" y="120" as="sourcePoint" />
            <mxPoint x="460" y="110" as="targetPoint" />
          </mxGeometry>
        </mxCell>
      </root>
    </mxGraphModel>
  </diagram>
</mxfile>
